<?xml version="1.0" encoding="UTF-8"?>
<!DOCTYPE svg PUBLIC "-//W3C//DTD SVG 1.1//EN" "http://www.w3.org/Graphics/SVG/1.1/DTD/svg11.dtd">
<!-- Creator: CorelDRAW 2018 (64-Bit) -->
<svg xmlns="http://www.w3.org/2000/svg" xml:space="preserve" width="26.8112mm" height="30.6804mm" version="1.1" style="shape-rendering:geometricPrecision; text-rendering:geometricPrecision; image-rendering:optimizeQuality; fill-rule:evenodd; clip-rule:evenodd"
viewBox="0 0 46.8 53.56"
 xmlns:xlink="http://www.w3.org/1999/xlink">
 <defs>
  <style type="text/css">
   <![CDATA[
    .fil0 {fill:#FEFEFE;fill-rule:nonzero}
   ]]>
  </style>
 </defs>
 <g id="Layer_x0020_1">
  <metadata id="CorelCorpID_0Corel-Layer"/>
  <path class="fil0" d="M46.69 13.04c0,-0.24 -0.01,-0.25 -0.26,-0.25 -0.61,0.01 -1.21,-0.07 -1.81,-0.16 -2.18,-0.33 -9.23,-4.03 -10.42,-10.08 -0.02,-0.12 -0.29,-1.62 -0.29,-2.26 0,-0.29 -0,-0.29 -0.29,-0.29 -0.07,-0 -0.13,0 -0.2,0 -2.76,0 -5.52,-0 -8.28,0 -0.56,0 -0.48,-0.07 -0.48,0.49 -0,11.97 -0,23.94 0,35.92 0,0.45 -0.01,0.89 -0.09,1.33 -0.42,2.32 -1.6,4.13 -3.61,5.37 -1.74,1.07 -3.63,1.38 -5.63,0.98 -0.63,-0.12 -1.22,-0.36 -1.82,-0.6 -0.05,-0.04 -0.1,-0.09 -0.14,-0.13 -0.2,-0.17 -0.42,-0.31 -0.63,-0.45 -2.56,-1.77 -3.77,-4.23 -3.4,-7.3 0.37,-3.12 2.17,-5.23 5.12,-6.32 0.88,-0.33 1.81,-0.46 2.75,-0.41 0.61,0.03 1.21,0.11 1.8,0.28 0.2,0.06 0.31,-0.01 0.32,-0.23 0,-0.08 0.01,-0.15 0.01,-0.23 0,-2.15 -0.08,-6.84 -0.09,-6.85 0,-0.62 0,-1.24 0.02,-1.86 0,-0.18 -0.08,-0.21 -0.24,-0.23 -1.11,-0.13 -2.23,-0.16 -3.35,-0.08 -1.55,0.11 -3.05,0.43 -4.5,0.96 -2.33,0.84 -4.37,2.13 -6.13,3.86 -1.51,1.48 -2.7,3.2 -3.57,5.13 -0.84,1.85 -1.31,3.79 -1.44,5.81 -0.06,0.88 -0.05,1.76 0.03,2.64 0.11,1.21 0.34,2.4 0.71,3.56 1.06,3.34 2.99,6.07 5.73,8.24 0.28,0.22 0.55,0.46 0.88,0.61l0 0c0.14,0.12 0.28,0.25 0.42,0.37 0.44,0.33 0.92,0.62 1.41,0.87 3.07,1.52 6.3,2.13 9.71,1.72 4.42,-0.54 8.1,-2.5 11,-5.87 2.73,-3.18 4.05,-6.91 4.08,-11.07 0.03,-5.96 0.01,-11.92 0.01,-17.89 0,-0.14 -0.08,-0.34 0.08,-0.42 0.12,-0.06 0.25,0.11 0.36,0.18 2.22,1.46 4.61,2.51 7.2,3.1 1.51,0.34 3.03,0.55 4.58,0.55 0.49,-0 0.55,-0.03 0.55,-0.51 0,-2.12 -0.11,-7.91 -0.11,-8.47z"/>
 </g>
</svg>
