<?xml version="1.0" encoding="UTF-8"?>
<!DOCTYPE svg PUBLIC "-//W3C//DTD SVG 1.1//EN" "http://www.w3.org/Graphics/SVG/1.1/DTD/svg11.dtd">
<!-- Creator: CorelDRAW 2018 (64-Bit) -->
<svg xmlns="http://www.w3.org/2000/svg" xml:space="preserve" width="30.3389mm" height="30.4754mm" version="1.1" style="shape-rendering:geometricPrecision; text-rendering:geometricPrecision; image-rendering:optimizeQuality; fill-rule:evenodd; clip-rule:evenodd"
viewBox="0 0 56.6 56.85"
 xmlns:xlink="http://www.w3.org/1999/xlink">
 <defs>
  <style type="text/css">
   <![CDATA[
    .fil0 {fill:#FEFEFE}
    .fil160 {fill:#ADD699}
    .fil159 {fill:#ACD699}
    .fil158 {fill:#ABD697}
    .fil157 {fill:#AAD597}
    .fil156 {fill:#A9D596}
    .fil1 {fill:#A9D595}
    .fil155 {fill:#A8D495}
    .fil2 {fill:#A8D494}
    .fil154 {fill:#A8D494}
    .fil3 {fill:#A8D493}
    .fil153 {fill:#A7D494}
    .fil152 {fill:#A7D493}
    .fil4 {fill:#A7D492}
    .fil151 {fill:#A6D392}
    .fil5 {fill:#A6D392}
    .fil150 {fill:#A5D391}
    .fil6 {fill:#A5D390}
    .fil149 {fill:#A4D390}
    .fil7 {fill:#A4D390}
    .fil148 {fill:#A3D290}
    .fil8 {fill:#A3D28F}
    .fil9 {fill:#A2D28E}
    .fil147 {fill:#A1D18E}
    .fil10 {fill:#A1D18D}
    .fil146 {fill:#A0D18D}
    .fil11 {fill:#A1D18D}
    .fil145 {fill:#A0D18D}
    .fil12 {fill:#A0D18C}
    .fil144 {fill:#9FD08B}
    .fil13 {fill:#9FD08B}
    .fil143 {fill:#9ED08B}
    .fil14 {fill:#9ED08A}
    .fil142 {fill:#9DD08A}
    .fil15 {fill:#9DD089}
    .fil141 {fill:#9CCF89}
    .fil16 {fill:#9CCF88}
    .fil140 {fill:#9BCF88}
    .fil17 {fill:#9BCF87}
    .fil18 {fill:#9BCF87}
    .fil139 {fill:#9ACF88}
    .fil138 {fill:#9ACF87}
    .fil19 {fill:#9ACF86}
    .fil137 {fill:#99CE86}
    .fil20 {fill:#9ACE85}
    .fil136 {fill:#99CE85}
    .fil21 {fill:#99CE84}
    .fil135 {fill:#98CE84}
    .fil22 {fill:#98CD84}
    .fil134 {fill:#97CD84}
    .fil23 {fill:#97CD82}
    .fil133 {fill:#96CD82}
    .fil24 {fill:#96CD82}
    .fil132 {fill:#95CC82}
    .fil25 {fill:#95CC81}
    .fil131 {fill:#94CC81}
    .fil26 {fill:#94CC80}
    .fil130 {fill:#93CC80}
    .fil27 {fill:#93CC7F}
    .fil129 {fill:#92CB7F}
    .fil28 {fill:#92CB7E}
    .fil128 {fill:#92CB7E}
    .fil29 {fill:#92CB7E}
    .fil127 {fill:#91CB7E}
    .fil30 {fill:#91CB7C}
    .fil126 {fill:#90CA7C}
    .fil31 {fill:#90CA7C}
    .fil125 {fill:#8FCA7C}
    .fil32 {fill:#8FCA7B}
    .fil124 {fill:#8ECA7B}
    .fil123 {fill:#8ECA7A}
    .fil33 {fill:#8ECA7A}
    .fil34 {fill:#8DC979}
    .fil35 {fill:#8CC978}
    .fil122 {fill:#8BC978}
    .fil36 {fill:#8BC977}
    .fil121 {fill:#8AC877}
    .fil37 {fill:#8BC876}
    .fil38 {fill:#8AC875}
    .fil120 {fill:#89C875}
    .fil39 {fill:#89C874}
    .fil119 {fill:#88C774}
    .fil40 {fill:#88C773}
    .fil41 {fill:#87C773}
    .fil42 {fill:#86C772}
    .fil118 {fill:#85C671}
    .fil43 {fill:#85C671}
    .fil117 {fill:#84C671}
    .fil44 {fill:#84C670}
    .fil45 {fill:#84C66F}
    .fil116 {fill:#83C66F}
    .fil46 {fill:#83C56E}
    .fil115 {fill:#82C56E}
    .fil47 {fill:#82C56D}
    .fil48 {fill:#81C56D}
    .fil114 {fill:#81C56C}
    .fil49 {fill:#80C56B}
    .fil50 {fill:#80C56A}
    .fil113 {fill:#7FC46B}
    .fil51 {fill:#7FC46A}
    .fil112 {fill:#7EC46A}
    .fil52 {fill:#7EC469}
    .fil111 {fill:#7DC469}
    .fil53 {fill:#7DC468}
    .fil110 {fill:#7CC368}
    .fil54 {fill:#7CC367}
    .fil109 {fill:#7BC367}
    .fil55 {fill:#7BC367}
    .fil108 {fill:#7AC366}
    .fil56 {fill:#7AC365}
    .fil107 {fill:#79C265}
    .fil57 {fill:#79C265}
    .fil106 {fill:#78C265}
    .fil58 {fill:#78C264}
    .fil105 {fill:#77C264}
    .fil59 {fill:#78C263}
    .fil104 {fill:#77C163}
    .fil60 {fill:#77C162}
    .fil103 {fill:#76C162}
    .fil61 {fill:#76C162}
    .fil102 {fill:#75C161}
    .fil62 {fill:#75C160}
    .fil63 {fill:#74C160}
    .fil64 {fill:#73C05F}
    .fil65 {fill:#72C05F}
    .fil66 {fill:#71C05E}
    .fil67 {fill:#70BF5D}
    .fil68 {fill:#6FBF5D}
    .fil101 {fill:#6EBF5C}
    .fil69 {fill:#6EBF5C}
    .fil70 {fill:#6DBF5B}
    .fil71 {fill:#6CBE5B}
    .fil100 {fill:#6BBE5A}
    .fil72 {fill:#6BBE5A}
    .fil99 {fill:#6ABE5A}
    .fil73 {fill:#6ABE59}
    .fil74 {fill:#69BD59}
    .fil75 {fill:#68BD58}
    .fil98 {fill:#68BD58}
    .fil76 {fill:#67BD57}
    .fil97 {fill:#67BD57}
    .fil77 {fill:#65BD57}
    .fil96 {fill:#65BD56}
    .fil78 {fill:#64BC56}
    .fil95 {fill:#64BC56}
    .fil79 {fill:#63BC55}
    .fil80 {fill:#62BC55}
    .fil94 {fill:#62BC54}
    .fil81 {fill:#61BB54}
    .fil93 {fill:#61BB54}
    .fil82 {fill:#61BB53}
    .fil92 {fill:#60BB54}
    .fil83 {fill:#60BB53}
    .fil91 {fill:#5FBB53}
    .fil84 {fill:#5FBB53}
    .fil85 {fill:#5EBB53}
    .fil90 {fill:#5DBA52}
    .fil86 {fill:#5DBA52}
    .fil89 {fill:#5CBA52}
    .fil87 {fill:#5CBA52}
    .fil88 {fill:#5ABA51}
   ]]>
  </style>
    <clipPath id="id0">
     <path d="M41.26 34.07c-0.7,-0.35 -4.17,-2.06 -4.81,-2.29 -0.65,-0.23 -1.11,-0.35 -1.58,0.35 -0.47,0.7 -1.82,2.29 -2.23,2.76 -0.41,0.47 -0.82,0.53 -1.53,0.18 -0.7,-0.35 -2.97,-1.1 -5.66,-3.49 -2.09,-1.87 -3.51,-4.17 -3.92,-4.88 -0.41,-0.7 -0.04,-1.09 0.31,-1.44 0.32,-0.32 0.7,-0.82 1.06,-1.23 0.35,-0.41 0.47,-0.7 0.7,-1.17 0.24,-0.47 0.12,-0.88 -0.06,-1.23 -0.18,-0.35 -1.58,-3.82 -2.17,-5.23 -0.57,-1.37 -1.15,-1.19 -1.58,-1.21 -0.41,-0.02 -0.88,-0.02 -1.35,-0.02 -0.47,0 -1.23,0.18 -1.88,0.88 -0.65,0.7 -2.46,2.41 -2.46,5.87 0,3.46 2.52,6.81 2.88,7.28 0.35,0.47 4.96,7.58 12.03,10.63 1.68,0.73 2.99,1.16 4.01,1.48 1.69,0.54 3.22,0.46 4.44,0.28 1.35,-0.2 4.17,-1.7 4.75,-3.35 0.59,-1.64 0.59,-3.05 0.41,-3.35 -0.18,-0.29 -0.65,-0.47 -1.35,-0.82zm-12.85 17.54l-0.01 0c-4.2,-0 -8.32,-1.13 -11.92,-3.26l-0.86 -0.51 -8.86 2.32 2.37 -8.64 -0.56 -0.89c-2.34,-3.73 -3.58,-8.04 -3.58,-12.46 0.01,-12.91 10.51,-23.41 23.43,-23.41 6.26,0 12.14,2.44 16.56,6.87 4.42,4.43 6.86,10.31 6.85,16.57 -0.01,12.91 -10.51,23.42 -23.42,23.42z"/>
    </clipPath>
 </defs>
 <g id="Layer_x0020_1">
  <metadata id="CorelCorpID_0Corel-Layer"/>
  <path class="fil0" d="M48.35 8.26c-5.32,-5.33 -12.4,-8.26 -19.93,-8.26 -15.53,0 -28.18,12.64 -28.18,28.17 -0,4.96 1.3,9.81 3.76,14.08l-4 14.6 14.94 -3.92c4.12,2.24 8.75,3.43 13.47,3.43l0.01 0c0,0 -0,0 0,0 15.53,0 28.17,-12.64 28.18,-28.17 0,-7.53 -2.93,-14.61 -8.25,-19.93z"/>
  <g>
   <g style="clip-path:url(#id0)">
    <polygon class="fil1" points="4.99,51.61 4.99,51.33 51.84,51.33 51.84,51.61 "/>
    <polygon id="1" class="fil2" points="4.99,51.42 4.99,51.15 51.84,51.15 51.84,51.42 "/>
    <polygon id="2" class="fil3" points="4.99,51.24 4.99,50.97 51.84,50.97 51.84,51.24 "/>
    <polygon id="3" class="fil4" points="4.99,51.06 4.99,50.78 51.84,50.78 51.84,51.06 "/>
    <polygon id="4" class="fil5" points="4.99,50.87 4.99,50.6 51.84,50.6 51.84,50.87 "/>
    <polygon id="5" class="fil6" points="4.99,50.69 4.99,50.42 51.84,50.42 51.84,50.69 "/>
    <polygon id="6" class="fil7" points="4.99,50.51 4.99,50.23 51.84,50.23 51.84,50.51 "/>
    <polygon id="7" class="fil8" points="4.99,50.33 4.99,50.05 51.84,50.05 51.84,50.33 "/>
    <polygon id="8" class="fil9" points="4.99,50.14 4.99,49.87 51.84,49.87 51.84,50.14 "/>
    <polygon id="9" class="fil10" points="4.99,49.96 4.99,49.68 51.84,49.68 51.84,49.96 "/>
    <polygon id="10" class="fil11" points="4.99,49.78 4.99,49.5 51.84,49.5 51.84,49.78 "/>
    <polygon id="11" class="fil12" points="4.99,49.59 4.99,49.32 51.84,49.32 51.84,49.59 "/>
    <polygon id="12" class="fil13" points="4.99,49.41 4.99,49.14 51.84,49.14 51.84,49.41 "/>
    <polygon id="13" class="fil14" points="4.99,49.23 4.99,48.95 51.84,48.95 51.84,49.23 "/>
    <polygon id="14" class="fil15" points="4.99,49.04 4.99,48.77 51.84,48.77 51.84,49.04 "/>
    <polygon id="15" class="fil16" points="4.99,48.86 4.99,48.59 51.84,48.59 51.84,48.86 "/>
    <polygon id="16" class="fil17" points="4.99,48.68 4.99,48.4 51.84,48.4 51.84,48.68 "/>
    <polygon id="17" class="fil18" points="4.99,48.5 4.99,48.22 51.84,48.22 51.84,48.5 "/>
    <polygon id="18" class="fil19" points="4.99,48.31 4.99,48.04 51.84,48.04 51.84,48.31 "/>
    <polygon id="19" class="fil20" points="4.99,48.13 4.99,47.85 51.84,47.85 51.84,48.13 "/>
    <polygon id="20" class="fil21" points="4.99,47.95 4.99,47.67 51.84,47.67 51.84,47.95 "/>
    <polygon id="21" class="fil22" points="4.99,47.76 4.99,47.49 51.84,47.49 51.84,47.76 "/>
    <polygon id="22" class="fil23" points="4.99,47.58 4.99,47.31 51.84,47.31 51.84,47.58 "/>
    <polygon id="23" class="fil24" points="4.99,47.4 4.99,47.12 51.84,47.12 51.84,47.4 "/>
    <polygon id="24" class="fil25" points="4.99,47.21 4.99,46.94 51.84,46.94 51.84,47.21 "/>
    <polygon id="25" class="fil26" points="4.99,47.03 4.99,46.76 51.84,46.76 51.84,47.03 "/>
    <polygon id="26" class="fil27" points="4.99,46.85 4.99,46.57 51.84,46.57 51.84,46.85 "/>
    <polygon id="27" class="fil28" points="4.99,46.67 4.99,46.39 51.84,46.39 51.84,46.67 "/>
    <polygon id="28" class="fil29" points="4.99,46.48 4.99,46.21 51.84,46.21 51.84,46.48 "/>
    <polygon id="29" class="fil30" points="4.99,46.3 4.99,46.02 51.84,46.02 51.84,46.3 "/>
    <polygon id="30" class="fil31" points="4.99,46.12 4.99,45.84 51.84,45.84 51.84,46.12 "/>
    <polygon id="31" class="fil32" points="4.99,45.93 4.99,45.66 51.84,45.66 51.84,45.93 "/>
    <polygon id="32" class="fil33" points="4.99,45.75 4.99,45.48 51.84,45.48 51.84,45.75 "/>
    <polygon id="33" class="fil34" points="4.99,45.57 4.99,45.29 51.84,45.29 51.84,45.57 "/>
    <polygon id="34" class="fil35" points="4.99,45.38 4.99,45.11 51.84,45.11 51.84,45.38 "/>
    <polygon id="35" class="fil36" points="4.99,45.2 4.99,44.93 51.84,44.93 51.84,45.2 "/>
    <polygon id="36" class="fil37" points="4.99,45.02 4.99,44.74 51.84,44.74 51.84,45.02 "/>
    <polygon id="37" class="fil38" points="4.99,44.84 4.99,44.56 51.84,44.56 51.84,44.84 "/>
    <polygon id="38" class="fil39" points="4.99,44.65 4.99,44.38 51.84,44.38 51.84,44.65 "/>
    <polygon id="39" class="fil40" points="4.99,44.47 4.99,44.19 51.84,44.19 51.84,44.47 "/>
    <polygon id="40" class="fil41" points="4.99,44.29 4.99,44.01 51.84,44.01 51.84,44.29 "/>
    <polygon id="41" class="fil42" points="4.99,44.1 4.99,43.83 51.84,43.83 51.84,44.1 "/>
    <polygon id="42" class="fil43" points="4.99,43.92 4.99,43.65 51.84,43.65 51.84,43.92 "/>
    <polygon id="43" class="fil44" points="4.99,43.74 4.99,43.46 51.84,43.46 51.84,43.74 "/>
    <polygon id="44" class="fil45" points="4.99,43.55 4.99,43.28 51.84,43.28 51.84,43.55 "/>
    <polygon id="45" class="fil46" points="4.99,43.37 4.99,43.1 51.84,43.1 51.84,43.37 "/>
    <polygon id="46" class="fil47" points="4.99,43.19 4.99,42.91 51.84,42.91 51.84,43.19 "/>
    <polygon id="47" class="fil48" points="4.99,43.01 4.99,42.73 51.84,42.73 51.84,43.01 "/>
    <polygon id="48" class="fil49" points="4.99,42.82 4.99,42.55 51.84,42.55 51.84,42.82 "/>
    <polygon id="49" class="fil50" points="4.99,42.64 4.99,42.36 51.84,42.36 51.84,42.64 "/>
    <polygon id="50" class="fil51" points="4.99,42.46 4.99,42.18 51.84,42.18 51.84,42.46 "/>
    <polygon id="51" class="fil52" points="4.99,42.27 4.99,42 51.84,42 51.84,42.27 "/>
    <polygon id="52" class="fil53" points="4.99,42.09 4.99,41.82 51.84,41.82 51.84,42.09 "/>
    <polygon id="53" class="fil54" points="4.99,41.91 4.99,41.63 51.84,41.63 51.84,41.91 "/>
    <polygon id="54" class="fil55" points="4.99,41.72 4.99,41.45 51.84,41.45 51.84,41.72 "/>
    <polygon id="55" class="fil56" points="4.99,41.54 4.99,41.27 51.84,41.27 51.84,41.54 "/>
    <polygon id="56" class="fil57" points="4.99,41.36 4.99,41.08 51.84,41.08 51.84,41.36 "/>
    <polygon id="57" class="fil58" points="4.99,41.18 4.99,40.9 51.84,40.9 51.84,41.18 "/>
    <polygon id="58" class="fil59" points="4.99,40.99 4.99,40.72 51.84,40.72 51.84,40.99 "/>
    <polygon id="59" class="fil60" points="4.99,40.81 4.99,40.53 51.84,40.53 51.84,40.81 "/>
    <polygon id="60" class="fil61" points="4.99,40.63 4.99,40.35 51.84,40.35 51.84,40.63 "/>
    <polygon id="61" class="fil62" points="4.99,40.44 4.99,40.17 51.84,40.17 51.84,40.44 "/>
    <polygon id="62" class="fil63" points="4.99,40.26 4.99,39.99 51.84,39.99 51.84,40.26 "/>
    <polygon id="63" class="fil64" points="4.99,40.08 4.99,39.8 51.84,39.8 51.84,40.08 "/>
    <polygon id="64" class="fil65" points="4.99,39.89 4.99,39.62 51.84,39.62 51.84,39.89 "/>
    <polygon id="65" class="fil66" points="4.99,39.71 4.99,39.44 51.84,39.44 51.84,39.71 "/>
    <polygon id="66" class="fil67" points="4.99,39.53 4.99,39.25 51.84,39.25 51.84,39.53 "/>
    <polygon id="67" class="fil68" points="4.99,39.35 4.99,39.07 51.84,39.07 51.84,39.35 "/>
    <polygon id="68" class="fil69" points="4.99,39.16 4.99,38.89 51.84,38.89 51.84,39.16 "/>
    <polygon id="69" class="fil70" points="4.99,38.98 4.99,38.7 51.84,38.7 51.84,38.98 "/>
    <polygon id="70" class="fil71" points="4.99,38.8 4.99,38.52 51.84,38.52 51.84,38.8 "/>
    <polygon id="71" class="fil72" points="4.99,38.61 4.99,38.34 51.84,38.34 51.84,38.61 "/>
    <polygon id="72" class="fil73" points="4.99,38.43 4.99,38.16 51.84,38.16 51.84,38.43 "/>
    <polygon id="73" class="fil74" points="4.99,38.25 4.99,37.97 51.84,37.97 51.84,38.25 "/>
    <polygon id="74" class="fil75" points="4.99,38.06 4.99,37.79 51.84,37.79 51.84,38.06 "/>
    <polygon id="75" class="fil76" points="4.99,37.88 4.99,37.61 51.84,37.61 51.84,37.88 "/>
    <polygon id="76" class="fil77" points="4.99,37.7 4.99,37.42 51.84,37.42 51.84,37.7 "/>
    <polygon id="77" class="fil78" points="4.99,37.52 4.99,37.24 51.84,37.24 51.84,37.52 "/>
    <polygon id="78" class="fil79" points="4.99,37.33 4.99,37.06 51.84,37.06 51.84,37.33 "/>
    <polygon id="79" class="fil80" points="4.99,37.15 4.99,36.87 51.84,36.87 51.84,37.15 "/>
    <polygon id="80" class="fil81" points="4.99,36.97 4.99,36.69 51.84,36.69 51.84,36.97 "/>
    <polygon id="81" class="fil82" points="4.99,36.78 4.99,36.51 51.84,36.51 51.84,36.78 "/>
    <polygon id="82" class="fil83" points="4.99,36.6 4.99,36.33 51.84,36.33 51.84,36.6 "/>
    <polygon id="83" class="fil84" points="4.99,36.42 4.99,36.14 51.84,36.14 51.84,36.42 "/>
    <polygon id="84" class="fil85" points="4.99,36.23 4.99,35.96 51.84,35.96 51.84,36.23 "/>
    <polygon id="85" class="fil86" points="4.99,36.05 4.99,35.78 51.84,35.78 51.84,36.05 "/>
    <polygon id="86" class="fil87" points="4.99,35.87 4.99,35.59 51.84,35.59 51.84,35.87 "/>
    <polygon id="87" class="fil88" points="4.99,35.69 4.99,35.41 51.84,35.41 51.84,35.69 "/>
    <polygon id="88" class="fil88" points="4.99,35.5 4.99,35.23 51.84,35.23 51.84,35.5 "/>
    <polygon id="89" class="fil88" points="4.99,35.32 4.99,35.04 51.84,35.04 51.84,35.32 "/>
    <polygon id="90" class="fil88" points="4.99,35.14 4.99,34.86 51.84,34.86 51.84,35.14 "/>
    <polygon id="91" class="fil88" points="4.99,34.95 4.99,34.68 51.84,34.68 51.84,34.95 "/>
    <polygon id="92" class="fil88" points="4.99,34.77 4.99,34.5 51.84,34.5 51.84,34.77 "/>
    <polygon id="93" class="fil88" points="4.99,34.59 4.99,34.31 51.84,34.31 51.84,34.59 "/>
    <polygon id="94" class="fil88" points="4.99,34.4 4.99,34.13 51.84,34.13 51.84,34.4 "/>
    <polygon id="95" class="fil88" points="4.99,34.22 4.99,33.95 51.84,33.95 51.84,34.22 "/>
    <polygon id="96" class="fil88" points="4.99,34.04 4.99,33.76 51.84,33.76 51.84,34.04 "/>
    <polygon id="97" class="fil88" points="4.99,33.86 4.99,33.58 51.84,33.58 51.84,33.86 "/>
    <polygon id="98" class="fil88" points="4.99,33.67 4.99,33.4 51.84,33.4 51.84,33.67 "/>
    <polygon id="99" class="fil88" points="4.99,33.49 4.99,33.21 51.84,33.21 51.84,33.49 "/>
    <polygon id="100" class="fil88" points="4.99,33.31 4.99,33.03 51.84,33.03 51.84,33.31 "/>
    <polygon id="101" class="fil88" points="4.99,33.12 4.99,32.85 51.84,32.85 51.84,33.12 "/>
    <polygon id="102" class="fil88" points="4.99,32.94 4.99,32.67 51.84,32.67 51.84,32.94 "/>
    <polygon id="103" class="fil88" points="4.99,32.76 4.99,32.48 51.84,32.48 51.84,32.76 "/>
    <polygon id="104" class="fil88" points="4.99,32.57 4.99,32.3 51.84,32.3 51.84,32.57 "/>
    <polygon id="105" class="fil88" points="4.99,32.39 4.99,32.12 51.84,32.12 51.84,32.39 "/>
    <polygon id="106" class="fil88" points="4.99,32.21 4.99,31.93 51.84,31.93 51.84,32.21 "/>
    <polygon id="107" class="fil88" points="4.99,32.03 4.99,31.75 51.84,31.75 51.84,32.03 "/>
    <polygon id="108" class="fil88" points="4.99,31.84 4.99,31.57 51.84,31.57 51.84,31.84 "/>
    <polygon id="109" class="fil88" points="4.99,31.66 4.99,31.38 51.84,31.38 51.84,31.66 "/>
    <polygon id="110" class="fil88" points="4.99,31.48 4.99,31.2 51.84,31.2 51.84,31.48 "/>
    <polygon id="111" class="fil88" points="4.99,31.29 4.99,31.02 51.84,31.02 51.84,31.29 "/>
    <polygon id="112" class="fil88" points="4.99,31.11 4.99,30.84 51.84,30.84 51.84,31.11 "/>
    <polygon id="113" class="fil88" points="4.99,30.93 4.99,30.65 51.84,30.65 51.84,30.93 "/>
    <polygon id="114" class="fil88" points="4.99,30.74 4.99,30.47 51.84,30.47 51.84,30.74 "/>
    <polygon id="115" class="fil88" points="4.99,30.56 4.99,30.29 51.84,30.29 51.84,30.56 "/>
    <polygon id="116" class="fil88" points="4.99,30.38 4.99,30.1 51.84,30.1 51.84,30.38 "/>
    <polygon id="117" class="fil88" points="4.99,30.2 4.99,29.92 51.84,29.92 51.84,30.2 "/>
    <polygon id="118" class="fil88" points="4.99,30.01 4.99,29.74 51.84,29.74 51.84,30.01 "/>
    <polygon id="119" class="fil88" points="4.99,29.83 4.99,29.55 51.84,29.55 51.84,29.83 "/>
    <polygon id="120" class="fil88" points="4.99,29.65 4.99,29.37 51.84,29.37 51.84,29.65 "/>
    <polygon id="121" class="fil88" points="4.99,29.46 4.99,29.19 51.84,29.19 51.84,29.46 "/>
    <polygon id="122" class="fil88" points="4.99,29.28 4.99,29.01 51.84,29.01 51.84,29.28 "/>
    <polygon id="123" class="fil88" points="4.99,29.1 4.99,28.82 51.84,28.82 51.84,29.1 "/>
    <polygon id="124" class="fil88" points="4.99,28.91 4.99,28.64 51.84,28.64 51.84,28.91 "/>
    <polygon id="125" class="fil88" points="4.99,28.73 4.99,28.46 51.84,28.46 51.84,28.73 "/>
    <polygon id="126" class="fil88" points="4.99,28.55 4.99,28.27 51.84,28.27 51.84,28.55 "/>
    <polygon id="127" class="fil88" points="4.99,28.37 4.99,28.09 51.84,28.09 51.84,28.37 "/>
    <polygon id="128" class="fil88" points="4.99,28.18 4.99,27.91 51.84,27.91 51.84,28.18 "/>
    <polygon id="129" class="fil88" points="4.99,28 4.99,27.72 51.84,27.72 51.84,28 "/>
    <polygon id="130" class="fil88" points="4.99,27.82 4.99,27.54 51.84,27.54 51.84,27.82 "/>
    <polygon id="131" class="fil88" points="4.99,27.63 4.99,27.36 51.84,27.36 51.84,27.63 "/>
    <polygon id="132" class="fil88" points="4.99,27.45 4.99,27.18 51.84,27.18 51.84,27.45 "/>
    <polygon id="133" class="fil88" points="4.99,27.27 4.99,26.99 51.84,26.99 51.84,27.27 "/>
    <polygon id="134" class="fil88" points="4.99,27.08 4.99,26.81 51.84,26.81 51.84,27.08 "/>
    <polygon id="135" class="fil88" points="4.99,26.9 4.99,26.63 51.84,26.63 51.84,26.9 "/>
    <polygon id="136" class="fil88" points="4.99,26.72 4.99,26.44 51.84,26.44 51.84,26.72 "/>
    <polygon id="137" class="fil88" points="4.99,26.54 4.99,26.26 51.84,26.26 51.84,26.54 "/>
    <polygon id="138" class="fil88" points="4.99,26.35 4.99,26.08 51.84,26.08 51.84,26.35 "/>
    <polygon id="139" class="fil88" points="4.99,26.17 4.99,25.89 51.84,25.89 51.84,26.17 "/>
    <polygon id="140" class="fil88" points="4.99,25.99 4.99,25.71 51.84,25.71 51.84,25.99 "/>
    <polygon id="141" class="fil88" points="4.99,25.8 4.99,25.53 51.84,25.53 51.84,25.8 "/>
    <polygon id="142" class="fil88" points="4.99,25.62 4.99,25.35 51.84,25.35 51.84,25.62 "/>
    <polygon id="143" class="fil88" points="4.99,25.44 4.99,25.16 51.84,25.16 51.84,25.44 "/>
    <polygon id="144" class="fil88" points="4.99,25.25 4.99,24.98 51.84,24.98 51.84,25.25 "/>
    <polygon id="145" class="fil88" points="4.99,25.07 4.99,24.8 51.84,24.8 51.84,25.07 "/>
    <polygon id="146" class="fil88" points="4.99,24.89 4.99,24.61 51.84,24.61 51.84,24.89 "/>
    <polygon id="147" class="fil88" points="4.99,24.71 4.99,24.43 51.84,24.43 51.84,24.71 "/>
    <polygon id="148" class="fil88" points="4.99,24.52 4.99,24.25 51.84,24.25 51.84,24.52 "/>
    <polygon id="149" class="fil88" points="4.99,24.34 4.99,24.06 51.84,24.06 51.84,24.34 "/>
    <polygon id="150" class="fil88" points="4.99,24.16 4.99,23.88 51.84,23.88 51.84,24.16 "/>
    <polygon id="151" class="fil88" points="4.99,23.97 4.99,23.7 51.84,23.7 51.84,23.97 "/>
    <polygon id="152" class="fil88" points="4.99,23.79 4.99,23.52 51.84,23.52 51.84,23.79 "/>
    <polygon id="153" class="fil88" points="4.99,23.61 4.99,23.33 51.84,23.33 51.84,23.61 "/>
    <polygon id="154" class="fil88" points="4.99,23.42 4.99,23.15 51.84,23.15 51.84,23.42 "/>
    <polygon id="155" class="fil88" points="4.99,23.24 4.99,22.97 51.84,22.97 51.84,23.24 "/>
    <polygon id="156" class="fil88" points="4.99,23.06 4.99,22.78 51.84,22.78 51.84,23.06 "/>
    <polygon id="157" class="fil88" points="4.99,22.88 4.99,22.6 51.84,22.6 51.84,22.88 "/>
    <polygon id="158" class="fil88" points="4.99,22.69 4.99,22.42 51.84,22.42 51.84,22.69 "/>
    <polygon id="159" class="fil88" points="4.99,22.51 4.99,22.23 51.84,22.23 51.84,22.51 "/>
    <polygon id="160" class="fil88" points="4.99,22.33 4.99,22.05 51.84,22.05 51.84,22.33 "/>
    <polygon id="161" class="fil88" points="4.99,22.14 4.99,21.87 51.84,21.87 51.84,22.14 "/>
    <polygon id="162" class="fil89" points="4.99,21.96 4.99,21.69 51.84,21.69 51.84,21.96 "/>
    <polygon id="163" class="fil90" points="4.99,21.78 4.99,21.5 51.84,21.5 51.84,21.78 "/>
    <polygon id="164" class="fil85" points="4.99,21.59 4.99,21.32 51.84,21.32 51.84,21.59 "/>
    <polygon id="165" class="fil91" points="4.99,21.41 4.99,21.14 51.84,21.14 51.84,21.41 "/>
    <polygon id="166" class="fil92" points="4.99,21.23 4.99,20.95 51.84,20.95 51.84,21.23 "/>
    <polygon id="167" class="fil93" points="4.99,21.05 4.99,20.77 51.84,20.77 51.84,21.05 "/>
    <polygon id="168" class="fil94" points="4.99,20.86 4.99,20.59 51.84,20.59 51.84,20.86 "/>
    <polygon id="169" class="fil79" points="4.99,20.68 4.99,20.4 51.84,20.4 51.84,20.68 "/>
    <polygon id="170" class="fil95" points="4.99,20.5 4.99,20.22 51.84,20.22 51.84,20.5 "/>
    <polygon id="171" class="fil96" points="4.99,20.31 4.99,20.04 51.84,20.04 51.84,20.31 "/>
    <polygon id="172" class="fil97" points="4.99,20.13 4.99,19.86 51.84,19.86 51.84,20.13 "/>
    <polygon id="173" class="fil98" points="4.99,19.95 4.99,19.67 51.84,19.67 51.84,19.95 "/>
    <polygon id="174" class="fil75" points="4.99,19.76 4.99,19.49 51.84,19.49 51.84,19.76 "/>
    <polygon id="175" class="fil74" points="4.99,19.58 4.99,19.31 51.84,19.31 51.84,19.58 "/>
    <polygon id="176" class="fil99" points="4.99,19.4 4.99,19.12 51.84,19.12 51.84,19.4 "/>
    <polygon id="177" class="fil100" points="4.99,19.22 4.99,18.94 51.84,18.94 51.84,19.22 "/>
    <polygon id="178" class="fil71" points="4.99,19.03 4.99,18.76 51.84,18.76 51.84,19.03 "/>
    <polygon id="179" class="fil70" points="4.99,18.85 4.99,18.57 51.84,18.57 51.84,18.85 "/>
    <polygon id="180" class="fil101" points="4.99,18.67 4.99,18.39 51.84,18.39 51.84,18.67 "/>
    <polygon id="181" class="fil68" points="4.99,18.48 4.99,18.21 51.84,18.21 51.84,18.48 "/>
    <polygon id="182" class="fil67" points="4.99,18.3 4.99,18.03 51.84,18.03 51.84,18.3 "/>
    <polygon id="183" class="fil66" points="4.99,18.12 4.99,17.84 51.84,17.84 51.84,18.12 "/>
    <polygon id="184" class="fil65" points="4.99,17.93 4.99,17.66 51.84,17.66 51.84,17.93 "/>
    <polygon id="185" class="fil64" points="4.99,17.75 4.99,17.48 51.84,17.48 51.84,17.75 "/>
    <polygon id="186" class="fil63" points="4.99,17.57 4.99,17.29 51.84,17.29 51.84,17.57 "/>
    <polygon id="187" class="fil102" points="4.99,17.39 4.99,17.11 51.84,17.11 51.84,17.39 "/>
    <polygon id="188" class="fil61" points="4.99,17.2 4.99,16.93 51.84,16.93 51.84,17.2 "/>
    <polygon id="189" class="fil103" points="4.99,17.02 4.99,16.74 51.84,16.74 51.84,17.02 "/>
    <polygon id="190" class="fil104" points="4.99,16.84 4.99,16.56 51.84,16.56 51.84,16.84 "/>
    <polygon id="191" class="fil105" points="4.99,16.65 4.99,16.38 51.84,16.38 51.84,16.65 "/>
    <polygon id="192" class="fil106" points="4.99,16.47 4.99,16.2 51.84,16.2 51.84,16.47 "/>
    <polygon id="193" class="fil107" points="4.99,16.29 4.99,16.01 51.84,16.01 51.84,16.29 "/>
    <polygon id="194" class="fil108" points="4.99,16.1 4.99,15.83 51.84,15.83 51.84,16.1 "/>
    <polygon id="195" class="fil109" points="4.99,15.92 4.99,15.65 51.84,15.65 51.84,15.92 "/>
    <polygon id="196" class="fil110" points="4.99,15.74 4.99,15.46 51.84,15.46 51.84,15.74 "/>
    <polygon id="197" class="fil111" points="4.99,15.56 4.99,15.28 51.84,15.28 51.84,15.56 "/>
    <polygon id="198" class="fil112" points="4.99,15.37 4.99,15.1 51.84,15.1 51.84,15.37 "/>
    <polygon id="199" class="fil113" points="4.99,15.19 4.99,14.91 51.84,14.91 51.84,15.19 "/>
    <polygon id="200" class="fil49" points="4.99,15.01 4.99,14.73 51.84,14.73 51.84,15.01 "/>
    <polygon id="201" class="fil114" points="4.99,14.82 4.99,14.55 51.84,14.55 51.84,14.82 "/>
    <polygon id="202" class="fil47" points="4.99,14.64 4.99,14.37 51.84,14.37 51.84,14.64 "/>
    <polygon id="203" class="fil115" points="4.99,14.46 4.99,14.18 51.84,14.18 51.84,14.46 "/>
    <polygon id="204" class="fil116" points="4.99,14.27 4.99,14 51.84,14 51.84,14.27 "/>
    <polygon id="205" class="fil45" points="4.99,14.09 4.99,13.82 51.84,13.82 51.84,14.09 "/>
    <polygon id="206" class="fil117" points="4.99,13.91 4.99,13.63 51.84,13.63 51.84,13.91 "/>
    <polygon id="207" class="fil118" points="4.99,13.73 4.99,13.45 51.84,13.45 51.84,13.73 "/>
    <polygon id="208" class="fil42" points="4.99,13.54 4.99,13.27 51.84,13.27 51.84,13.54 "/>
    <polygon id="209" class="fil41" points="4.99,13.36 4.99,13.08 51.84,13.08 51.84,13.36 "/>
    <polygon id="210" class="fil119" points="4.99,13.18 4.99,12.9 51.84,12.9 51.84,13.18 "/>
    <polygon id="211" class="fil120" points="4.99,12.99 4.99,12.72 51.84,12.72 51.84,12.99 "/>
    <polygon id="212" class="fil38" points="4.99,12.81 4.99,12.54 51.84,12.54 51.84,12.81 "/>
    <polygon id="213" class="fil121" points="4.99,12.63 4.99,12.35 51.84,12.35 51.84,12.63 "/>
    <polygon id="214" class="fil122" points="4.99,12.44 4.99,12.17 51.84,12.17 51.84,12.44 "/>
    <polygon id="215" class="fil35" points="4.99,12.26 4.99,11.99 51.84,11.99 51.84,12.26 "/>
    <polygon id="216" class="fil34" points="4.99,12.08 4.99,11.8 51.84,11.8 51.84,12.08 "/>
    <polygon id="217" class="fil123" points="4.99,11.9 4.99,11.62 51.84,11.62 51.84,11.9 "/>
    <polygon id="218" class="fil124" points="4.99,11.71 4.99,11.44 51.84,11.44 51.84,11.71 "/>
    <polygon id="219" class="fil125" points="4.99,11.53 4.99,11.25 51.84,11.25 51.84,11.53 "/>
    <polygon id="220" class="fil126" points="4.99,11.35 4.99,11.07 51.84,11.07 51.84,11.35 "/>
    <polygon id="221" class="fil127" points="4.99,11.16 4.99,10.89 51.84,10.89 51.84,11.16 "/>
    <polygon id="222" class="fil128" points="4.99,10.98 4.99,10.71 51.84,10.71 51.84,10.98 "/>
    <polygon id="223" class="fil129" points="4.99,10.8 4.99,10.52 51.84,10.52 51.84,10.8 "/>
    <polygon id="224" class="fil130" points="4.99,10.61 4.99,10.34 51.84,10.34 51.84,10.61 "/>
    <polygon id="225" class="fil131" points="4.99,10.43 4.99,10.16 51.84,10.16 51.84,10.43 "/>
    <polygon id="226" class="fil132" points="4.99,10.25 4.99,9.97 51.84,9.97 51.84,10.25 "/>
    <polygon id="227" class="fil133" points="4.99,10.07 4.99,9.79 51.84,9.79 51.84,10.07 "/>
    <polygon id="228" class="fil134" points="4.99,9.88 4.99,9.61 51.84,9.61 51.84,9.88 "/>
    <polygon id="229" class="fil135" points="4.99,9.7 4.99,9.42 51.84,9.42 51.84,9.7 "/>
    <polygon id="230" class="fil136" points="4.99,9.52 4.99,9.24 51.84,9.24 51.84,9.52 "/>
    <polygon id="231" class="fil137" points="4.99,9.33 4.99,9.06 51.84,9.06 51.84,9.33 "/>
    <polygon id="232" class="fil138" points="4.99,9.15 4.99,8.88 51.84,8.88 51.84,9.15 "/>
    <polygon id="233" class="fil139" points="4.99,8.97 4.99,8.69 51.84,8.69 51.84,8.97 "/>
    <polygon id="234" class="fil140" points="4.99,8.78 4.99,8.51 51.84,8.51 51.84,8.78 "/>
    <polygon id="235" class="fil141" points="4.99,8.6 4.99,8.33 51.84,8.33 51.84,8.6 "/>
    <polygon id="236" class="fil142" points="4.99,8.42 4.99,8.14 51.84,8.14 51.84,8.42 "/>
    <polygon id="237" class="fil143" points="4.99,8.24 4.99,7.96 51.84,7.96 51.84,8.24 "/>
    <polygon id="238" class="fil144" points="4.99,8.05 4.99,7.78 51.84,7.78 51.84,8.05 "/>
    <polygon id="239" class="fil145" points="4.99,7.87 4.99,7.59 51.84,7.59 51.84,7.87 "/>
    <polygon id="240" class="fil146" points="4.99,7.69 4.99,7.41 51.84,7.41 51.84,7.69 "/>
    <polygon id="241" class="fil147" points="4.99,7.5 4.99,7.23 51.84,7.23 51.84,7.5 "/>
    <polygon id="242" class="fil9" points="4.99,7.32 4.99,7.05 51.84,7.05 51.84,7.32 "/>
    <polygon id="243" class="fil148" points="4.99,7.14 4.99,6.86 51.84,6.86 51.84,7.14 "/>
    <polygon id="244" class="fil149" points="4.99,6.95 4.99,6.68 51.84,6.68 51.84,6.95 "/>
    <polygon id="245" class="fil150" points="4.99,6.77 4.99,6.5 51.84,6.5 51.84,6.77 "/>
    <polygon id="246" class="fil151" points="4.99,6.59 4.99,6.31 51.84,6.31 51.84,6.59 "/>
    <polygon id="247" class="fil152" points="4.99,6.41 4.99,6.13 51.84,6.13 51.84,6.41 "/>
    <polygon id="248" class="fil153" points="4.99,6.22 4.99,5.95 51.84,5.95 51.84,6.22 "/>
    <polygon id="249" class="fil154" points="4.99,6.04 4.99,5.76 51.84,5.76 51.84,6.04 "/>
    <polygon id="250" class="fil155" points="4.99,5.86 4.99,5.58 51.84,5.58 51.84,5.86 "/>
    <polygon id="251" class="fil156" points="4.99,5.67 4.99,5.4 51.84,5.4 51.84,5.67 "/>
    <polygon id="252" class="fil157" points="4.99,5.49 4.99,5.22 51.84,5.22 51.84,5.49 "/>
    <polygon id="253" class="fil158" points="4.99,5.31 4.99,5.03 51.84,5.03 51.84,5.31 "/>
    <polygon id="254" class="fil159" points="4.99,5.12 4.99,4.85 51.84,4.85 51.84,5.12 "/>
    <polygon id="255" class="fil160" points="4.99,4.94 4.99,4.67 51.84,4.67 51.84,4.94 "/>
    <polygon id="256" class="fil159" points="4.99,4.76 4.99,4.48 51.84,4.48 51.84,4.76 "/>
    <polygon id="257" class="fil158" points="4.99,4.58 4.99,4.76 51.84,4.76 51.84,4.58 "/>
   </g>
  </g>
 </g>
</svg>
