<?xml version="1.0" encoding="UTF-8"?>
<!DOCTYPE svg PUBLIC "-//W3C//DTD SVG 1.1//EN" "http://www.w3.org/Graphics/SVG/1.1/DTD/svg11.dtd">
<!-- Creator: CorelDRAW 2018 (64-Bit) -->
<svg xmlns="http://www.w3.org/2000/svg" xml:space="preserve" width="326.282mm" height="104.443mm" version="1.1" style="shape-rendering:geometricPrecision; text-rendering:geometricPrecision; image-rendering:optimizeQuality; fill-rule:evenodd; clip-rule:evenodd"
viewBox="0 0 19049.91 6097.86"
 xmlns:xlink="http://www.w3.org/1999/xlink">
 <defs>
  <style type="text/css">
   <![CDATA[
    .fil0 {fill:#FEFEFE;fill-rule:nonzero}
    .fil1 {fill:#F58333;fill-rule:nonzero}
   ]]>
  </style>
 </defs>
 <g id="Capa_x0020_1">
  <metadata id="CorelCorpID_0Corel-Layer"/>
  <path class="fil0" d="M40.27 4163.81l2606.64 -3.99c-13.74,157.17 53.41,278.39 202.74,363.63 149.33,85.25 369.48,127.87 660.43,127.87 290.95,0 516.39,-34.63 675.04,-103.9 159.93,-69.26 254.35,-173.16 284.53,-311.69 26.71,-122.54 -14.62,-221.11 -123.97,-295.7 -109.65,-73.26 -290,-127.87 -543.93,-162.5l-1563.59 -206.46c-647.23,-82.59 -1107.75,-269.07 -1380.87,-556.77 -274.11,-289.05 -357.84,-675.33 -252.48,-1158.84 140.49,-644.69 498.02,-1114.88 1071.3,-1410.58 574.86,-297.03 1418.42,-444.88 2532.26,-444.88 1156.12,0 1983.95,147.85 2481.9,444.88 499.24,297.03 702.57,757.91 610.72,1385.27l-2499.38 0c12.86,-182.48 -62.36,-319.67 -225.32,-412.92 -163.26,-91.91 -409.45,-138.52 -741.42,-138.52 -239.69,0 -436.93,34.63 -590.45,103.9 -152.23,69.26 -241.48,161.17 -267.02,278.38 -23.8,109.23 11.75,193.14 105.65,250.42 93.9,57.28 302.75,110.55 629.11,159.84l1898.07 289.04c592.93,90.58 1011.45,275.72 1252.98,555.44 242.82,279.72 311.92,656.67 208.87,1129.53 -154.12,707.29 -569.81,1226.77 -1248.06,1557.1 -678.24,330.34 -1670.41,495.5 -2975.22,495.5 -1036.93,0 -1796.61,-166.5 -2277.74,-499.49 -482.14,-334.33 -658.63,-812.52 -530.78,-1434.56z"/>
  <path class="fil1" d="M7851.18 3038.28c-109.42,502.16 -71.26,885.77 115.78,1150.84 185.77,265.07 509.23,398.27 969.37,398.27 460.14,0 841.64,-133.19 1142.94,-398.27 302.56,-265.07 507.93,-648.68 617.36,-1150.84 109.72,-503.49 72.13,-889.77 -114.34,-1157.5 -185.19,-267.74 -508.35,-402.26 -968.49,-402.26 -460.14,0 -841.94,134.52 -1143.81,402.26 -303.16,267.73 -509.09,654.01 -618.81,1157.5zm-2314.82 0c218.57,-1002.99 697.76,-1760.9 1438.55,-2272.38 739.22,-510.15 1726.77,-765.89 2961.08,-765.89 1234.31,0 2110.4,255.74 2627.28,765.89 517.87,511.49 666.74,1269.39 448.17,2272.38 -218.27,1001.66 -697.16,1758.23 -1437.96,2269.72 -739.22,510.16 -1726.77,765.9 -2961.09,765.9 -1234.31,0 -2110.4,-255.74 -2627.28,-765.9 -517.88,-511.49 -667.04,-1268.05 -448.76,-2269.72z"/>
  <path class="fil0" d="M11855.71 3357.64l0 -556.88 600.73 0 0 556.88 -600.73 0zm0 2582.72l0 -2275.78 600.73 0 0 2275.78 -600.73 0zm3287.97 0l-600.73 0 0 -1159.81c0,-245.55 -13.15,-404.14 -38.74,-475.76 -26.31,-72.36 -67.96,-127.89 -126.43,-168.09 -58.47,-40.2 -128.63,-59.93 -210.48,-59.93 -105.24,0 -199.52,28.5 -282.83,85.51 -84.04,57 -141.05,133.01 -171.74,226.55 -31.43,94.28 -46.77,268.21 -46.77,522.54l0 1028.99 -600.73 0 0 -2275.78 556.88 0 0 333.98c199.51,-255.06 450.19,-382.22 753.48,-382.22 133.01,0 255.05,24.12 365.41,71.63 111.09,48.23 194.4,108.89 250.68,182.7 57.01,74.54 96.47,158.58 118.39,252.86 22.65,94.28 33.62,228.75 33.62,404.15l0 1412.67zm564.93 -2275.78l552.5 0 0 310.6c198.05,-238.97 434.11,-358.83 708.17,-358.83 145.43,0 271.86,29.97 378.57,89.9 107.43,59.93 195.12,150.55 263.09,271.86 100.12,-121.31 208.28,-211.94 323.75,-271.86 115.47,-59.93 238.98,-89.9 370.53,-89.9 166.63,0 307.68,33.62 423.88,101.59 115.46,67.97 201.7,167.36 258.71,298.9 41.66,96.47 62.12,253.6 62.12,470.65l0 1452.87 -600.73 0 0 -1298.67c0,-225.82 -20.47,-371.25 -62.12,-436.3 -55.55,-85.5 -141.78,-128.62 -257.25,-128.62 -84.05,0 -163.71,25.58 -238.25,76.74 -73.82,51.88 -127.89,127.16 -160.78,225.82 -32.88,99.39 -48.96,255.79 -48.96,469.92l0 1091.11 -600.74 0 0 -1245.33c0,-220.7 -10.96,-363.94 -32.16,-427.52 -21.19,-64.32 -54.08,-112.55 -99.39,-143.98 -44.58,-31.42 -105.97,-46.77 -182.7,-46.77 -92.81,0 -176.13,24.85 -249.95,74.55 -74.54,50.43 -127.16,122.05 -159.31,216.32 -32.16,94.27 -48.23,250.67 -48.23,468.46l0 1104.27 -600.73 0 0 -2275.78z"/>
 </g>
</svg>
