<?xml version="1.0" encoding="UTF-8"?>
<!DOCTYPE svg PUBLIC "-//W3C//DTD SVG 1.1//EN" "http://www.w3.org/Graphics/SVG/1.1/DTD/svg11.dtd">
<!-- Creator: CorelDRAW 2018 (64 Bit) -->
<svg xmlns="http://www.w3.org/2000/svg" xml:space="preserve" width="580px" height="186px" version="1.1" style="shape-rendering:geometricPrecision; text-rendering:geometricPrecision; image-rendering:optimizeQuality; fill-rule:evenodd; clip-rule:evenodd"
viewBox="0 0 476.74 152.61"
 xmlns:xlink="http://www.w3.org/1999/xlink">
 <defs>
  <style type="text/css">
   <![CDATA[
    .fil1 {fill:#F58333;fill-rule:nonzero}
    .fil2 {fill:#162246;fill-rule:nonzero}
    .fil0 {fill:#162246;fill-rule:nonzero}
   ]]>
  </style>
 </defs>
 <g id="Capa_x0020_1">
  <metadata id="CorelCorpID_0Corel-Layer"/>
  <path class="fil0" d="M1.01 104.2l65.23 -0.1c-0.34,3.94 1.34,6.97 5.08,9.1 3.73,2.14 9.24,3.2 16.52,3.2 7.28,0 12.93,-0.86 16.9,-2.6 4,-1.73 6.36,-4.33 7.12,-7.8 0.67,-3.06 -0.37,-5.53 -3.1,-7.4 -2.75,-1.83 -7.26,-3.2 -13.62,-4.06l-39.13 -5.17c-16.19,-2.07 -27.72,-6.73 -34.55,-13.93 -6.86,-7.24 -8.96,-16.9 -6.32,-29 3.51,-16.14 12.46,-27.91 26.81,-35.31 14.38,-7.43 35.49,-11.13 63.37,-11.13 28.93,0 49.65,3.7 62.11,11.13 12.5,7.44 17.58,18.97 15.29,34.67l-62.55 0c0.32,-4.57 -1.56,-8 -5.64,-10.33 -4.09,-2.3 -10.25,-3.47 -18.56,-3.47 -6,0 -10.93,0.87 -14.77,2.6 -3.81,1.73 -6.05,4.03 -6.69,6.97 -0.59,2.73 0.3,4.83 2.65,6.27 2.35,1.43 7.57,2.76 15.74,4l47.5 7.23c14.84,2.27 25.31,6.9 31.36,13.9 6.08,7 7.81,16.43 5.23,28.27 -3.86,17.7 -14.26,30.7 -31.24,38.97 -16.97,8.26 -41.8,12.4 -74.46,12.4 -25.95,0 -44.96,-4.17 -57,-12.5 -12.06,-8.37 -16.48,-20.34 -13.28,-35.91z"/>
  <path class="fil1" d="M196.48 76.04c-2.73,12.56 -1.78,22.16 2.9,28.8 4.65,6.63 12.75,9.96 24.26,9.96 11.52,0 21.06,-3.33 28.6,-9.96 7.58,-6.64 12.72,-16.24 15.45,-28.8 2.75,-12.6 1.81,-22.27 -2.86,-28.97 -4.63,-6.7 -12.72,-10.07 -24.23,-10.07 -11.52,0 -21.07,3.37 -28.63,10.07 -7.59,6.7 -12.74,16.37 -15.49,28.97zm-57.93 0c5.47,-25.11 17.47,-44.07 36.01,-56.87 18.49,-12.77 43.21,-19.17 74.1,-19.17 30.89,0 52.81,6.4 65.75,19.17 12.96,12.8 16.69,31.76 11.22,56.87 -5.47,25.06 -17.45,44 -35.99,56.8 -18.5,12.77 -43.22,19.17 -74.11,19.17 -30.89,0 -52.81,-6.4 -65.75,-19.17 -12.96,-12.8 -16.69,-31.74 -11.23,-56.8z"/>
  <path class="fil2" d="M296.7 84.03l0 -13.94 15.04 0 0 13.94 -15.04 0zm0 64.63l0 -56.95 15.04 0 0 56.95 -15.04 0zm82.29 0l-15.04 0 0 -29.02c0,-6.15 -0.33,-10.12 -0.97,-11.91 -0.66,-1.81 -1.7,-3.2 -3.16,-4.2 -1.46,-1.01 -3.22,-1.5 -5.27,-1.5 -2.63,0 -4.99,0.71 -7.08,2.13 -2.1,1.43 -3.53,3.33 -4.29,5.68 -0.79,2.35 -1.18,6.71 -1.18,13.07l0 25.75 -15.03 0 0 -56.95 13.94 0 0 8.36c4.99,-6.38 11.26,-9.57 18.85,-9.57 3.33,0 6.39,0.61 9.15,1.8 2.78,1.2 4.86,2.72 6.27,4.57 1.43,1.86 2.42,3.97 2.97,6.33 0.56,2.36 0.84,5.72 0.84,10.11l0 35.35zm14.13 -56.95l13.83 0 0 7.77c4.96,-5.98 10.87,-8.98 17.72,-8.98 3.64,0 6.81,0.75 9.48,2.25 2.69,1.5 4.88,3.77 6.58,6.81 2.51,-3.04 5.22,-5.31 8.1,-6.81 2.89,-1.5 5.99,-2.25 9.28,-2.25 4.17,0 7.7,0.84 10.6,2.55 2.89,1.7 5.05,4.18 6.48,7.48 1.04,2.41 1.55,6.34 1.55,11.77l0 36.36 -15.03 0 0 -32.5c0,-5.65 -0.51,-9.29 -1.55,-10.92 -1.39,-2.14 -3.55,-3.21 -6.44,-3.21 -2.11,0 -4.1,0.64 -5.96,1.92 -1.85,1.29 -3.21,3.18 -4.03,5.65 -0.82,2.48 -1.22,6.4 -1.22,11.76l0 27.3 -15.04 0 0 -31.16c0,-5.52 -0.27,-9.11 -0.8,-10.7 -0.53,-1.61 -1.36,-2.82 -2.49,-3.6 -1.12,-0.79 -2.65,-1.17 -4.57,-1.17 -2.32,0 -4.41,0.62 -6.26,1.86 -1.86,1.26 -3.18,3.06 -3.98,5.41 -0.81,2.36 -1.21,6.28 -1.21,11.73l0 27.63 -15.04 0 0 -56.95z"/>
 </g>
</svg>
